<svg width="113" height="95" viewBox="0 0 113 95" fill="none" xmlns="http://www.w3.org/2000/svg">
<path d="M3 17.4861V46.4583H9.20833V52.6667H15.4167V67.1528H27.8333V79.5694H38.1806H40.25V67.1528H73.3611V79.5694H85.7778V67.1528H98.1944V52.6667H104.403V46.4583H110.611V15.4167H98.1944V23.6944V25.7639H83.7083V15.4167H75.4306V3H63.0139V15.4167H48.5278V3H36.1111V15.4167H27.8333V25.7639H15.4167V15.4167H3V17.4861Z" fill="#68FF61"/>
<path d="M27.8327 79.5703H15.416V91.987H27.8327V79.5703Z" fill="#68FF61"/>
<path d="M98.194 79.5703H85.7773V91.987H98.194V79.5703Z" fill="#68FF61"/>
<path d="M41.8543 38.1816H34.4043V50.5983H41.8543V38.1816Z" fill="black" stroke="black" stroke-width="4.13889" stroke-linecap="round" stroke-linejoin="round"/>
<path d="M27.8327 67.153H15.416V54.7363" stroke="black" stroke-width="4.13889" stroke-linecap="round" stroke-linejoin="round"/>
<path d="M29.0391 25.7632V15.416H36.1104" stroke="black" stroke-width="4.13889" stroke-linecap="round" stroke-linejoin="round"/>
<path d="M83.1044 25.7632V15.416H76.0352" stroke="black" stroke-width="4.13889" stroke-linecap="round" stroke-linejoin="round"/>
<path d="M9.20833 46.4577H3V15.416H15.4167V46.4577" stroke="black" stroke-width="4.13889" stroke-linecap="round" stroke-linejoin="round"/>
<path d="M98.1953 46.4577V15.416H110.612V46.4577H104.404" stroke="black" stroke-width="4.13889" stroke-linecap="round" stroke-linejoin="round"/>
<path d="M36.1113 15.4167V3H48.528V15.4167" stroke="black" stroke-width="4.13889" stroke-linecap="round" stroke-linejoin="round"/>
<path d="M63.0137 15.4167V3H75.4303V15.4167" stroke="black" stroke-width="4.13889" stroke-linecap="round" stroke-linejoin="round"/>
<path d="M15.4173 46.459H21.6257V52.6673H9.20898V46.459" stroke="black" stroke-width="4.13889" stroke-linecap="round" stroke-linejoin="round"/>
<path d="M104.403 46.459V52.6673H91.9863V46.459H98.1947" stroke="black" stroke-width="4.13889" stroke-linecap="round" stroke-linejoin="round"/>
<path d="M27.8327 79.5703H15.416V91.987H27.8327V79.5703Z" stroke="black" stroke-width="4.13889" stroke-linecap="round" stroke-linejoin="round"/>
<path d="M98.194 79.5703H85.7773V91.987H98.194V79.5703Z" stroke="black" stroke-width="4.13889" stroke-linecap="round" stroke-linejoin="round"/>
<path d="M40.2507 67.1523V79.569H27.834V67.1523" stroke="black" stroke-width="4.13889" stroke-linecap="round" stroke-linejoin="round"/>
<path d="M85.7773 67.153H98.194V54.7363" stroke="black" stroke-width="4.13889" stroke-linecap="round" stroke-linejoin="round"/>
<path d="M73.3613 67.1523V79.569H85.778V67.1523" stroke="black" stroke-width="4.13889" stroke-linecap="round" stroke-linejoin="round"/>
<path d="M79.6219 38.1816H72.1719V50.5983H79.6219V38.1816Z" fill="black" stroke="black" stroke-width="4.13889" stroke-linecap="round" stroke-linejoin="round"/>
<path d="M40.25 67.1523H73.3611" stroke="black" stroke-width="4.13889" stroke-linecap="round" stroke-linejoin="round"/>
<path d="M48.5273 15.416H63.0135" stroke="black" stroke-width="4.13889" stroke-linecap="round" stroke-linejoin="round"/>
<path d="M15.416 25.7637H27.8327" stroke="black" stroke-width="4.13889" stroke-linecap="round" stroke-linejoin="round"/>
<path d="M83.709 25.7637H98.1951" stroke="black" stroke-width="4.13889" stroke-linecap="round" stroke-linejoin="round"/>
</svg>
