<svg width="12" height="17" viewBox="0 0 12 17" fill="none" xmlns="http://www.w3.org/2000/svg">
<path d="M11.4645 6.32132L5.15708 16.3081C5.10452 16.4658 4.89427 16.5709 4.73658 16.5709C4.68402 16.5709 4.63146 16.5709 4.5789 16.5183C4.36865 16.4132 4.21097 16.2029 4.26353 15.9401L5.15708 9.21222H0.531639C0.321392 9.21222 0.163707 9.1071 0.0585831 8.94942C-0.0465406 8.79173 0.0060212 8.58148 0.111145 8.4238L5.36733 1.06514C5.52501 0.854895 5.73526 0.802334 5.94551 0.854895C6.15575 0.907457 6.31344 1.1177 6.31344 1.32795V5.5329H11.044C11.2542 5.5329 11.4119 5.63802 11.5171 5.79571C11.5696 5.95339 11.5696 6.16364 11.4645 6.32132Z" fill="#012C00"/>
</svg>
