<svg width="18" height="23" viewBox="0 0 18 23" fill="none" xmlns="http://www.w3.org/2000/svg">
<path d="M17.1762 8.02687L7.97786 22.5909C7.9012 22.8208 7.59459 22.9741 7.36463 22.9741C7.28798 22.9741 7.21133 22.9741 7.13468 22.8975C6.82807 22.7442 6.59811 22.4376 6.67476 22.0543L7.97786 12.2428H1.23242C0.925812 12.2428 0.695854 12.0895 0.542549 11.8595C0.389244 11.6295 0.465896 11.3229 0.619201 11.093L8.28447 0.361601C8.51442 0.0549908 8.82103 -0.0216618 9.12764 0.0549908C9.43426 0.131643 9.66421 0.438254 9.66421 0.744865V6.87708H16.563C16.8696 6.87708 17.0995 7.03038 17.2528 7.26034C17.3295 7.4903 17.3295 7.79691 17.1762 8.02687Z" fill="#012C00"/>
<path d="M17.1762 8.02687L7.97786 22.5909C7.9012 22.8208 7.59459 22.9741 7.36463 22.9741C7.28798 22.9741 7.21133 22.9741 7.13468 22.8975C6.82807 22.7442 6.59811 22.4376 6.67476 22.0543L7.97786 12.2428H1.23242C0.925812 12.2428 0.695854 12.0895 0.542549 11.8595C0.389244 11.6295 0.465896 11.3229 0.619201 11.093L8.28447 0.361601C8.51442 0.0549908 8.82103 -0.0216618 9.12764 0.0549908C9.43426 0.131643 9.66421 0.438254 9.66421 0.744865V6.87708H16.563C16.8696 6.87708 17.0995 7.03038 17.2528 7.26034C17.3295 7.4903 17.3295 7.79691 17.1762 8.02687Z" fill="url(#paint0_linear_1169_24)"/>
<defs>
<linearGradient id="paint0_linear_1169_24" x1="13.74" y1="-2.12968" x2="-2.80707" y2="1.70573" gradientUnits="userSpaceOnUse">
<stop stop-color="#56FF53"/>
<stop offset="1" stop-color="#BFFF00"/>
</linearGradient>
</defs>
</svg>
