<svg width="23" height="23" viewBox="0 0 23 23" fill="none" xmlns="http://www.w3.org/2000/svg">
<g clip-path="url(#clip0_1169_29)">
<path d="M11.4375 22.4375C17.4781 22.4375 22.375 17.5406 22.375 11.5C22.375 5.45939 17.4781 0.5625 11.4375 0.5625C5.39689 0.5625 0.5 5.45939 0.5 11.5C0.5 17.5406 5.39689 22.4375 11.4375 22.4375Z" fill="#FFD15C"/>
<path d="M11.4375 22.4375C17.4781 22.4375 22.375 17.5406 22.375 11.5C22.375 5.45939 17.4781 0.5625 11.4375 0.5625C5.39689 0.5625 0.5 5.45939 0.5 11.5C0.5 17.5406 5.39689 22.4375 11.4375 22.4375Z" fill="url(#paint0_linear_1169_29)"/>
<path d="M11.4405 19.8224C16.0352 19.8224 19.7599 16.0977 19.7599 11.503C19.7599 6.90831 16.0352 3.18359 11.4405 3.18359C6.84581 3.18359 3.12109 6.90831 3.12109 11.503C3.12109 16.0977 6.84581 19.8224 11.4405 19.8224Z" fill="#D8901B"/>
<path d="M10.0704 14.8606C9.8336 14.5463 9.66997 14.1716 9.58385 13.741L7.46094 13.9693C7.62457 15.0372 7.9992 15.8639 8.58052 16.4496C9.16615 17.0352 9.92833 17.384 10.8628 17.496V18.5596H12.0426V17.4529C13.0976 17.3022 13.9244 16.8888 14.5186 16.217C15.1129 15.5453 15.41 14.7185 15.41 13.7367C15.41 12.8583 15.1732 12.1392 14.7038 11.5794C14.2344 11.0196 13.3474 10.5631 12.0469 10.21V7.03213C12.5723 7.26035 12.8995 7.69527 13.0201 8.33257L15.0784 8.06559C14.9363 7.25174 14.6134 6.60582 14.1053 6.11923C13.5971 5.63264 12.9125 5.33983 12.0469 5.23648V4.43555H10.8671V5.24079C9.93695 5.33122 9.18768 5.68001 8.62789 6.28717C8.0681 6.89003 7.7882 7.63929 7.7882 8.52634C7.7882 9.40479 8.03796 10.1497 8.53316 10.7655C9.02836 11.3813 9.80776 11.8377 10.8714 12.1435V15.5453C10.5742 15.4032 10.3073 15.175 10.0704 14.8606ZM12.0469 12.488C12.5335 12.6301 12.8866 12.8324 13.0976 13.0951C13.3129 13.3578 13.4206 13.6721 13.4206 14.0338C13.4206 14.4386 13.2914 14.7917 13.0373 15.0932C12.7833 15.3946 12.4517 15.584 12.0469 15.6572V12.488ZM10.079 9.22393C9.9068 8.97848 9.82068 8.71151 9.82068 8.423C9.82068 8.10865 9.91542 7.82014 10.1049 7.56178C10.2944 7.30341 10.5484 7.11825 10.8671 7.0106V9.82248C10.514 9.67177 10.2513 9.47369 10.079 9.22393Z" fill="#FFD15C"/>
</g>
<defs>
<linearGradient id="paint0_linear_1169_29" x1="0.5" y1="11.5" x2="22.7497" y2="12.5035" gradientUnits="userSpaceOnUse">
<stop stop-color="#FFAE00"/>
<stop offset="1" stop-color="#FFF700"/>
</linearGradient>
<clipPath id="clip0_1169_29">
<rect width="21.875" height="21.875" fill="white" transform="translate(0.5 0.5625)"/>
</clipPath>
</defs>
</svg>
