<svg width="19" height="20" viewBox="0 0 19 20" fill="none" xmlns="http://www.w3.org/2000/svg">
<g clip-path="url(#clip0_1129_7375)">
<path d="M9.47908 4.21484C5.62203 4.21484 2.49527 7.3416 2.49527 11.1987C2.49527 15.0557 5.62203 18.1825 9.47908 18.1825C13.3361 18.1825 16.4629 15.0557 16.4629 11.1987" stroke="#262000" stroke-width="1.99537" stroke-linecap="round" stroke-linejoin="round"/>
<path fill-rule="evenodd" clip-rule="evenodd" d="M10.6511 8.09208L15.7696 4.51943C15.9852 4.39349 16.0289 4.15526 15.8672 3.98733C15.8395 3.95852 15.8066 3.93293 15.7696 3.91132L10.6511 0.338664C10.3277 0.149748 9.86884 0.200797 9.62628 0.452685C9.53125 0.551368 9.47988 0.671394 9.47988 0.794747V7.636C9.47988 7.95086 9.8076 8.20611 10.2119 8.20611C10.3703 8.20611 10.5244 8.1661 10.6511 8.09208Z" fill="#262000"/>
</g>
<defs>
<clipPath id="clip0_1129_7375">
<rect width="18.9561" height="18.9561" fill="white" transform="matrix(-1 0 0 1 18.957 0.224609)"/>
</clipPath>
</defs>
</svg>
