<svg width="12" height="16" viewBox="0 0 12 16" fill="none" xmlns="http://www.w3.org/2000/svg">
<path d="M11.7132 5.61771L5.4058 15.6045C5.35324 15.7621 5.14299 15.8673 4.9853 15.8673C4.93274 15.8673 4.88018 15.8673 4.82762 15.8147C4.61737 15.7096 4.45968 15.4993 4.51225 15.2365L5.4058 8.50861H0.780358C0.57011 8.50861 0.412425 8.40349 0.307301 8.2458C0.202178 8.08812 0.254739 7.87787 0.359863 7.72018L5.61604 0.361529C5.77373 0.151282 5.98398 0.0987204 6.19422 0.151282C6.40447 0.203844 6.56216 0.414091 6.56216 0.624339V4.82928H11.2927C11.503 4.82928 11.6607 4.93441 11.7658 5.09209C11.8183 5.24978 11.8183 5.46003 11.7132 5.61771Z" fill="#012C00"/>
</svg>
